# xmcd
#
# Track frame offsets:
# 150
# 2411
# 33722
# 47524
# 68150
# 82364
# 103015
# 114979
# 141397
#
# Disc length: 1914 seconds
#
# Revision: 0
# Processed by: cddbd v1.5.1PL2 Copyright (c) Steve Scherf et al.
# Submitted via: Audion 3.0.2 (http://www.panic.com/audion/)
#
DISCID=77077809
DTITLE=dIRECT - fixafat
DYEAR=1900
DGENRE=
TTITLE0=q
TTITLE1=q
TTITLE2=q
TTITLE3=q
TTITLE4=q
TTITLE5=q
TTITLE6=q
TTITLE7=q
TTITLE8=q
EXTD=
EXTT0=
EXTT1=
EXTT2=
EXTT3=
EXTT4=
EXTT5=
EXTT6=
EXTT7=
EXTT8=
PLAYORDER=
